<mxfile host="app.diagrams.net" modified="2023-08-18T07:51:33.544Z" agent="Mozilla/5.0 (Windows NT 10.0; Win64; x64) AppleWebKit/537.36 (KHTML, like Gecko) Chrome/115.0.0.0 Safari/537.36" etag="B1DT2J36R1FiFRzLqGuJ" version="21.6.8" type="device">
  <diagram name="Seite-1" id="SLgfnDXZTU2ddNc6kErW">
    <mxGraphModel dx="974" dy="557" grid="1" gridSize="10" guides="1" tooltips="1" connect="1" arrows="1" fold="1" page="1" pageScale="1" pageWidth="827" pageHeight="1169" math="0" shadow="0">
      <root>
        <mxCell id="0" />
        <mxCell id="1" parent="0" />
        <mxCell id="G3p4LUoIo7J9oR9BPGRe-6" value="Cuelist Show" style="swimlane;whiteSpace=wrap;html=1;" vertex="1" parent="1">
          <mxGeometry x="70" y="80" width="200" height="200" as="geometry" />
        </mxCell>
        <mxCell id="G3p4LUoIo7J9oR9BPGRe-1" value="" style="rounded=0;whiteSpace=wrap;html=1;" vertex="1" parent="G3p4LUoIo7J9oR9BPGRe-6">
          <mxGeometry x="20" y="30" width="70" height="30" as="geometry" />
        </mxCell>
        <mxCell id="G3p4LUoIo7J9oR9BPGRe-9" value="" style="rounded=0;whiteSpace=wrap;html=1;" vertex="1" parent="G3p4LUoIo7J9oR9BPGRe-6">
          <mxGeometry x="30" y="40" width="70" height="30" as="geometry" />
        </mxCell>
        <mxCell id="G3p4LUoIo7J9oR9BPGRe-10" value="" style="rounded=0;whiteSpace=wrap;html=1;" vertex="1" parent="G3p4LUoIo7J9oR9BPGRe-6">
          <mxGeometry x="40" y="50" width="70" height="30" as="geometry" />
        </mxCell>
        <mxCell id="G3p4LUoIo7J9oR9BPGRe-11" value="" style="rounded=0;whiteSpace=wrap;html=1;" vertex="1" parent="G3p4LUoIo7J9oR9BPGRe-6">
          <mxGeometry x="50" y="60" width="70" height="30" as="geometry" />
        </mxCell>
        <mxCell id="G3p4LUoIo7J9oR9BPGRe-12" value="" style="rounded=0;whiteSpace=wrap;html=1;" vertex="1" parent="G3p4LUoIo7J9oR9BPGRe-6">
          <mxGeometry x="60" y="70" width="70" height="30" as="geometry" />
        </mxCell>
        <mxCell id="G3p4LUoIo7J9oR9BPGRe-13" value="" style="rounded=0;whiteSpace=wrap;html=1;" vertex="1" parent="G3p4LUoIo7J9oR9BPGRe-6">
          <mxGeometry x="70" y="80" width="70" height="30" as="geometry" />
        </mxCell>
        <mxCell id="G3p4LUoIo7J9oR9BPGRe-14" value="" style="rounded=0;whiteSpace=wrap;html=1;" vertex="1" parent="G3p4LUoIo7J9oR9BPGRe-6">
          <mxGeometry x="80" y="90" width="70" height="30" as="geometry" />
        </mxCell>
        <mxCell id="G3p4LUoIo7J9oR9BPGRe-15" value="" style="rounded=0;whiteSpace=wrap;html=1;" vertex="1" parent="G3p4LUoIo7J9oR9BPGRe-6">
          <mxGeometry x="90" y="100" width="70" height="30" as="geometry" />
        </mxCell>
        <mxCell id="G3p4LUoIo7J9oR9BPGRe-16" value="" style="rounded=0;whiteSpace=wrap;html=1;" vertex="1" parent="G3p4LUoIo7J9oR9BPGRe-6">
          <mxGeometry x="100" y="110" width="70" height="30" as="geometry" />
        </mxCell>
        <mxCell id="G3p4LUoIo7J9oR9BPGRe-17" value="" style="rounded=0;whiteSpace=wrap;html=1;" vertex="1" parent="G3p4LUoIo7J9oR9BPGRe-6">
          <mxGeometry x="110" y="120" width="70" height="30" as="geometry" />
        </mxCell>
        <mxCell id="G3p4LUoIo7J9oR9BPGRe-18" value="" style="rounded=0;whiteSpace=wrap;html=1;" vertex="1" parent="G3p4LUoIo7J9oR9BPGRe-6">
          <mxGeometry x="120" y="130" width="70" height="30" as="geometry" />
        </mxCell>
        <mxCell id="G3p4LUoIo7J9oR9BPGRe-19" value="Cuelist Orchester" style="swimlane;whiteSpace=wrap;html=1;" vertex="1" parent="1">
          <mxGeometry x="310" y="80" width="120" height="100" as="geometry">
            <mxRectangle x="310" y="80" width="140" height="30" as="alternateBounds" />
          </mxGeometry>
        </mxCell>
        <mxCell id="G3p4LUoIo7J9oR9BPGRe-20" value="Cuelist Chor" style="swimlane;whiteSpace=wrap;html=1;" vertex="1" parent="1">
          <mxGeometry x="460" y="80" width="120" height="100" as="geometry" />
        </mxCell>
        <mxCell id="G3p4LUoIo7J9oR9BPGRe-21" value="" style="rounded=0;whiteSpace=wrap;html=1;" vertex="1" parent="G3p4LUoIo7J9oR9BPGRe-20">
          <mxGeometry x="20" y="40" width="70" height="30" as="geometry" />
        </mxCell>
        <mxCell id="G3p4LUoIo7J9oR9BPGRe-22" value="" style="rounded=0;whiteSpace=wrap;html=1;" vertex="1" parent="1">
          <mxGeometry x="330" y="120" width="70" height="30" as="geometry" />
        </mxCell>
        <mxCell id="G3p4LUoIo7J9oR9BPGRe-23" value="" style="shape=flexArrow;endArrow=classic;html=1;rounded=0;" edge="1" parent="1">
          <mxGeometry width="50" height="50" relative="1" as="geometry">
            <mxPoint x="369.5" y="250" as="sourcePoint" />
            <mxPoint x="369.5" y="180" as="targetPoint" />
          </mxGeometry>
        </mxCell>
        <mxCell id="G3p4LUoIo7J9oR9BPGRe-24" value="" style="shape=flexArrow;endArrow=classic;html=1;rounded=0;" edge="1" parent="1">
          <mxGeometry width="50" height="50" relative="1" as="geometry">
            <mxPoint x="519.5" y="250" as="sourcePoint" />
            <mxPoint x="519.5" y="180" as="targetPoint" />
          </mxGeometry>
        </mxCell>
        <mxCell id="G3p4LUoIo7J9oR9BPGRe-25" value="Executor" style="text;html=1;strokeColor=none;fillColor=none;align=center;verticalAlign=middle;whiteSpace=wrap;rounded=0;" vertex="1" parent="1">
          <mxGeometry x="340" y="270" width="60" height="30" as="geometry" />
        </mxCell>
        <mxCell id="G3p4LUoIo7J9oR9BPGRe-26" value="Executor" style="text;html=1;strokeColor=none;fillColor=none;align=center;verticalAlign=middle;whiteSpace=wrap;rounded=0;" vertex="1" parent="1">
          <mxGeometry x="490" y="270" width="60" height="30" as="geometry" />
        </mxCell>
        <mxCell id="G3p4LUoIo7J9oR9BPGRe-27" value="Grand&lt;br&gt;Master" style="text;html=1;strokeColor=none;fillColor=none;align=center;verticalAlign=middle;whiteSpace=wrap;rounded=0;" vertex="1" parent="1">
          <mxGeometry x="640" y="80" width="60" height="30" as="geometry" />
        </mxCell>
      </root>
    </mxGraphModel>
  </diagram>
</mxfile>
